Coordinates
version=1
nRows=29
nColumns=24
inDegrees=yes

Units are S.I. units (second, meters, Newtons, ...)
Angles are in degrees.

endheader
time	pelvis_tilt	pelvis_list	pelvis_rotation	pelvis_tx	pelvis_ty	pelvis_tz	hip_flexion_r	hip_adduction_r	hip_rotation_r	knee_angle_r	ankle_angle_r	subtalar_angle_r	mtp_angle_r	hip_flexion_l	hip_adduction_l	hip_rotation_l	knee_angle_l	ankle_angle_l	subtalar_angle_l	mtp_angle_l	lumbar_extension	lumbar_bending	lumbar_rotation
      4.56000000	      9.02504437	      4.18088013	      7.49458621	     -1.66240330	      0.88685556	      0.19711166	     17.28264845	     -2.71193341	     -9.42046949	    -11.89130174	     15.42067046	      6.10799321	      0.00000000	    -31.46682026	      5.68470490	      7.25876959	    -12.03738980	     14.30534220	     -6.75047926	      0.00000000	    -28.36493712	      0.84328497	    -12.31168388
      4.57000000	      8.90824845	      3.61098403	      7.13124738	     -1.64561416	      0.88557196	      0.19805336	     18.08111386	     -1.93054935	     -8.75122777	    -14.52306697	     14.91830753	      6.02053657	      0.00000000	    -30.33956250	      5.07517684	      4.83541737	    -15.24137688	     13.50998028	     -4.58412182	      0.00000000	    -27.92997940	      1.47132554	    -12.06512674
      4.58000000	      8.82852961	      2.96839921	      6.81989644	     -1.62883462	      0.88465437	      0.19897047	     18.69499230	     -1.06898564	     -8.09720420	    -16.95635889	     14.41852866	      5.85102740	      0.00000000	    -28.98096030	      4.30108674	      2.72185495	    -18.78671220	     11.96383895	     -2.98622223	      0.00000000	    -27.53564564	      2.20078409	    -11.89273119
      4.59000000	      8.90902373	      2.21447707	      6.57129390	     -1.61215264	      0.88424602	      0.19980336	     18.97053749	     -0.07828986	     -7.52991044	    -19.12900339	     14.24848761	      5.68403357	      0.00000000	    -27.54173980	      3.32955334	      0.98941410	    -22.58605241	      9.61307578	     -2.03143599	      0.00000000	    -27.33761055	      3.09828754	    -11.76757009
      4.60000000	      9.11171105	      1.35279973	      6.46254278	     -1.59570757	      0.88427758	      0.20044138	     18.95248881	      0.98995254	     -7.24958135	    -21.04061499	     14.34884402	      5.51218272	      0.00000000	    -25.93257424	      2.14706437	     -0.34541094	    -26.68694249	      6.69110557	     -1.47944028	      0.00000000	    -27.30317059	      4.17122901	    -11.73397007
      4.61000000	      9.35317865	      0.42692707	      6.49498915	     -1.57956946	      0.88456880	      0.20089900	     18.73508720	      2.08645632	     -7.23056504	    -22.69738142	     14.81326970	      5.35878118	      0.00000000	    -24.08295170	      0.82878255	     -1.25591515	    -31.03016340	      3.44641074	     -1.18249991	      0.00000000	    -27.33766260	      5.34373911	    -11.78034095
      4.62000000	      9.53740167	     -0.52815757	      6.67745653	     -1.56378094	      0.88494308	      0.20120862	     18.41465174	      3.16906820	     -7.45667106	    -24.07755217	     15.58198084	      5.23775841	      0.00000000	    -21.91815091	     -0.56493604	     -1.74151535	    -35.54218206	      0.29073677	     -0.93113400	      0.00000000	    -27.33251035	      6.55420689	    -11.90285443
      4.63000000	      9.61539164	     -1.49011196	      6.99704685	     -1.54836221	      0.88530167	      0.20141916	     18.04221879	      4.21967304	     -7.89579349	    -25.16221029	     16.57074939	      5.17775637	      0.00000000	    -19.42751841	     -1.97369909	     -1.82473412	    -40.13051452	     -2.34794640	     -0.56353589	      0.00000000	    -27.21223379	      7.75443488	    -12.08687257
      4.64000000	      9.57168785	     -2.43327183	      7.43816330	     -1.53330198	      0.88565011	      0.20155849	     17.62356876	      5.22071461	     -8.49006519	    -25.91707608	     17.66861934	      5.17663824	      0.00000000	    -16.65413927	     -3.33299150	     -1.53775981	    -44.67097418	     -4.15688536	     -0.01617928	      0.00000000	    -26.94971310	      8.91249396	    -12.29865456
      4.65000000	      9.42308562	     -3.32701071	      7.97106851	     -1.51858765	      0.88609382	      0.20164617	     17.13276321	      6.15322029	     -9.18877706	    -26.31724070	     18.77413198	      5.25126003	      0.00000000	    -13.67838600	     -4.56298396	     -0.92568588	    -49.03165310	     -4.99673308	      0.66179113	      0.00000000	    -26.56097400	      9.98838421	    -12.50838733
      4.66000000	      9.18666636	     -4.14067995	      8.54882314	     -1.50417406	      0.88674073	      0.20174241	     16.56190792	      7.00284352	     -9.93084295	    -26.38583398	     19.84885389	      5.43820032	      0.00000000	    -10.57772626	     -5.60401591	     -0.09331902	    -53.09683733	     -4.91131192	      1.36784732	      0.00000000	    -26.06061171	     10.92247389	    -12.72570033
      4.67000000	      8.93201232	     -4.83303474	      9.13669678	     -1.49004100	      0.88778562	      0.20179856	     15.83551580	      7.73700300	    -10.69953003	    -26.13270647	     20.82149481	      5.71219447	      0.00000000	     -7.48125567	     -6.40539670	      0.84520020	    -56.76171580	     -4.12469777	      1.96572438	      0.00000000	    -25.54261526	     11.70047451	    -12.91973121
      4.68000000	      8.75743933	     -5.36776836	      9.70820646	     -1.47612687	      0.88942018	      0.20186066	     14.83524231	      8.37170687	    -11.37162176	    -25.55292950	     21.64814600	      5.99453046	      0.00000000	     -4.55137538	     -6.95345339	      1.79807662	    -59.94499197	     -2.78093626	      2.53298606	      0.00000000	    -25.13134846	     12.28224545	    -13.11619099
      4.69000000	      8.59855866	     -5.71708089	     10.19824048	     -1.46238388	      0.89155795	      0.20195925	     13.66651747	      8.86963697	    -11.91655112	    -24.73967391	     22.34054064	      6.31551571	      0.00000000	     -1.75434958	     -7.21021258	      2.65794576	    -62.62095914	     -1.22689197	      2.89468187	      0.00000000	    -24.76958811	     12.62295538	    -13.26987523
      4.70000000	      8.48208513	     -5.86343222	     10.57187125	     -1.44876024	      0.89418842	      0.20214474	     12.31434209	      9.23255027	    -12.25806051	    -23.73692363	     22.88353589	      6.59137023	      0.00000000	      0.84245227	     -7.18703587	      3.35158032	    -64.77347918	      0.38128242	      3.11904795	      0.00000000	    -24.50785672	     12.70161419	    -13.36201902
      4.71000000	      8.42803132	     -5.82147307	     10.82510253	     -1.43521149	      0.89724633	      0.20242206	     10.76462651	      9.48593975	    -12.33767086	    -22.55993632	     23.28395233	      6.76859252	      0.00000000	      3.20084277	     -6.92299487	      3.85912355	    -66.41209030	      1.87527639	      3.19832975	      0.00000000	    -24.36906278	     12.54953982	    -13.44775736
      4.72000000	      8.24072832	     -5.59351401	     10.81278691	     -1.42163230	      0.90037048	      0.20299713	      9.28027950	      9.59008857	    -12.05732216	    -21.33664181	     23.56506394	      6.83648884	      0.00000000	      5.48660065	     -6.43294349	      4.02076998	    -67.56596804	      3.36020236	      3.28609913	      0.00000000	    -24.13592914	     12.07618478	    -13.35096775
      4.73000000	      8.06055691	     -5.23821580	     10.64693287	     -1.40805678	      0.90361199	      0.20374002	      7.70241115	      9.61968081	    -11.43864970	    -20.00564158	     23.69618527	      6.66906153	      0.00000000	      7.58308982	     -5.81718615	      3.95720404	    -68.26592481	      4.65638484	      3.30385957	      0.00000000	    -23.96018795	     11.42548753	    -13.19511202
      4.74000000	      7.85677593	     -4.77525768	     10.29453302	     -1.39444237	      0.90683698	      0.20469064	      6.07801776	      9.57121832	    -10.44809824	    -18.59280146	     23.67223341	      6.25441115	      0.00000000	      9.51180250	     -5.12034736	      3.63316577	    -68.52999791	      5.79182675	      3.25922255	      0.00000000	    -23.80382745	     10.60185101	    -12.92417408
      4.75000000	      7.64392147	     -4.25434810	      9.83582544	     -1.38082446	      0.90992574	      0.20573137	      4.40945634	      9.47031028	     -9.16099788	    -17.09711419	     23.53324900	      5.51588830	      0.00000000	     11.29535895	     -4.38985810	      3.15269383	    -68.40838427	      6.80496096	      3.09625859	      0.00000000	    -23.66748376	      9.69884805	    -12.55808872
      4.76000000	      7.39845789	     -3.69255922	      9.22699144	     -1.36715516	      0.91279301	      0.20689646	      2.74675110	      9.28669304	     -7.68935025	    -15.57440282	     23.30293624	      4.78721427	      0.00000000	     12.95591947	     -3.68386702	      2.44500153	    -67.91599742	      7.66437387	      2.89647372	      0.00000000	    -23.50483434	      8.72008651	    -12.11307468
      4.77000000	      7.14597402	     -3.11666558	      8.59890697	     -1.35351156	      0.91535106	      0.20801636	      1.07598935	      9.04666943	     -6.09162953	    -14.00889936	     23.01433078	      3.77952969	      0.00000000	     14.50842867	     -2.98958123	      1.68277720	    -67.09876325	      8.51078601	      2.61166078	      0.00000000	    -23.34755055	      7.74216427	    -11.62637567
      4.78000000	      6.87204011	     -2.54442796	      7.90565344	     -1.33986551	      0.91754462	      0.20913094	     -0.56091077	      8.73769030	     -4.48450070	    -12.45208715	     22.69225460	      2.82708195	      0.00000000	     15.97202378	     -2.35608550	      0.80137872	    -65.97533271	      9.23926422	      2.33198633	      0.00000000	    -23.16377938	      6.77268233	    -11.12393864
      4.79000000	      6.61515838	     -2.02090104	      7.15516350	     -1.32625070	      0.91934607	      0.21020047	     -2.16597890	      8.39834330	     -2.99975697	    -10.95225450	     22.45327433	      2.09194356	      0.00000000	     17.32207321	     -1.82897959	     -0.17068133	    -64.57153383	      9.86328168	      1.94412048	      0.00000000	    -23.00594242	      5.87677585	    -10.51444459
      4.80000000	      6.32625389	     -1.53013874	      6.40981558	     -1.31268183	      0.92067065	      0.21116053	     -3.67479427	      8.01625572	     -1.72852704	     -9.51894994	     22.29379290	      1.47647983	      0.00000000	     18.62194607	     -1.36213772	     -1.15840093	    -62.90763652	     10.47181860	      1.63085464	      0.00000000	    -22.80234040	      5.04491415	     -9.92957899
      4.81000000	      6.03647656	     -1.08659411	      5.68203506	     -1.29920117	      0.92152936	      0.21202371	     -5.11570575	      7.62772982	     -0.70161001	     -8.14822378	     22.21349966	      0.99495644	      0.00000000	     19.85147146	     -0.96697291	     -2.13988989	    -61.00710436	     11.02784848	      1.32047051	      0.00000000	    -22.61297092	      4.28611377	     -9.33395411
      4.82000000	      5.72145211	     -0.69703663	      4.98343618	     -1.28575292	      0.92192162	      0.21276761	     -6.47796055	      7.25897873	      0.16106082	     -6.81975190	     22.11173672	      0.44331024	      0.00000000	     21.01253552	     -0.63412436	     -3.08475481	    -58.84431691	     11.53743744	      1.10510509	      0.00000000	    -22.37688464	      3.62040188	     -8.76879599
      4.83000000	      5.33269439	     -0.41824630	      4.27712253	     -1.27238588	      0.92176363	      0.21343616	     -7.61073202	      6.95291433	      0.42980023	     -5.69722841	     22.36837194	      0.61985671	      0.00000000	     22.17698167	     -0.43309995	     -4.02057975	    -56.46122372	     12.01878106	      0.88983063	      0.00000000	    -22.06043193	      3.08939349	     -8.17208790
      4.84000000	      5.14029431	     -0.16570111	      3.61408751	     -1.25905409	      0.92147121	      0.21399013	     -9.03013076	      6.70057078	      1.02410875	     -4.42215541	     22.35646162	      0.12762021	      0.00000000	     22.99647743	     -0.25604508	     -4.88539067	    -53.78312273	     12.36356874	      0.66304132	      0.00000000	    -21.99599095	      2.63651809	     -7.55440971
